<svg width="24" height="24" viewBox="0 0 24 24" fill="none" xmlns="http://www.w3.org/2000/svg">
<path d="M17.1929 20.542C17.4797 21.0139 18.0999 21.1704 18.5438 20.8418C19.7886 19.9206 20.8279 18.7446 21.5901 17.388C22.5159 15.74 23.0015 13.8813 23 11.9911C22.9985 10.1008 22.5099 8.24291 21.5813 6.59646C20.817 5.24112 19.7757 4.06675 18.5295 3.14756C18.0851 2.81973 17.4651 2.97722 17.179 3.44961C16.8929 3.92199 17.0462 4.53563 17.484 4.87241C18.4384 5.60674 19.2384 6.52748 19.8333 7.5823C20.5924 8.92836 20.9919 10.4473 20.9931 11.9927C20.9944 13.5381 20.5974 15.0577 19.8404 16.405C19.2472 17.4608 18.4487 18.3828 17.4955 19.1187C17.0583 19.4562 16.906 20.07 17.1929 20.542Z" fill="white"/>
<path d="M15.1784 17.0884C15.471 17.5568 16.0939 17.7048 16.5159 17.3485C17.1624 16.8026 17.7068 16.1422 18.1201 15.3976C18.6959 14.3605 18.9987 13.1941 19 12.0078C19.0013 10.8216 18.7012 9.6545 18.1277 8.61609C17.716 7.87056 17.1732 7.20893 16.5279 6.66161C16.1067 6.30437 15.4834 6.45097 15.1898 6.91872C14.8961 7.38648 15.0461 7.99795 15.4461 8.37868C15.8144 8.72911 16.1285 9.13501 16.3761 9.58341C16.7856 10.325 16.9999 11.1585 16.999 12.0056C16.998 12.8527 16.7818 13.6857 16.3706 14.4264C16.122 14.8742 15.807 15.2794 15.438 15.629C15.0371 16.0088 14.8858 16.62 15.1784 17.0884Z" fill="white"/>
<path d="M6.80715 3.45801C6.52025 2.98608 5.90008 2.82959 5.45615 3.15815C4.21145 4.07935 3.1721 5.25541 2.40993 6.61198C1.48406 8.25993 0.998473 10.1187 1 12.0089C1.00153 13.8991 1.49013 15.7571 2.41867 17.4035C3.18303 18.7589 4.22428 19.9332 5.47048 20.8524C5.91494 21.1802 6.53486 21.0228 6.82099 20.5504C7.10711 20.078 6.95376 19.4643 6.51604 19.1276C5.56163 18.3932 4.76161 17.4725 4.16673 16.4177C3.40759 15.0716 3.00814 13.5526 3.00689 12.0073C3.00564 10.4619 3.40263 8.94228 4.15958 7.59499C4.75275 6.53921 5.55128 5.61717 6.5045 4.8813C6.94168 4.54381 7.09404 3.92993 6.80715 3.45801Z" fill="white"/>
<path d="M8.82162 6.91159C8.52904 6.44317 7.90607 6.29518 7.48409 6.65147C6.83758 7.19734 6.29322 7.85776 5.87985 8.60237C5.30409 9.63949 5.00133 10.8059 5.00001 11.9921C4.99868 13.1784 5.29882 14.3455 5.87226 15.3839C6.28396 16.1294 6.82683 16.791 7.47211 17.3384C7.8933 17.6956 8.51659 17.549 8.81023 17.0812C9.10386 16.6135 8.95393 16.002 8.55385 15.6213C8.18561 15.2709 7.87155 14.865 7.62393 14.4166C7.21442 13.675 7.00007 12.8415 7.00102 11.9944C7.00197 11.1473 7.21818 10.3143 7.62936 9.57361C7.87798 9.12576 8.19296 8.72057 8.56198 8.37096C8.96291 7.99113 9.11421 7.38 8.82162 6.91159Z" fill="white"/>
<path d="M15 12C15 13.6568 13.6569 15 12 15C10.3431 15 9 13.6568 9 12C9 10.3431 10.3431 8.99998 12 8.99998C13.6569 8.99998 15 10.3431 15 12ZM10.9895 12C10.9895 12.5581 11.4419 13.0105 12 13.0105C12.5581 13.0105 13.0105 12.5581 13.0105 12C13.0105 11.4419 12.5581 10.9894 12 10.9894C11.4419 10.9894 10.9895 11.4419 10.9895 12Z" fill="white"/>
</svg>
