<svg width="35" height="35" viewBox="0 0 35 35" fill="none" xmlns="http://www.w3.org/2000/svg">
<g clip-path="url(#clip0_103_146)">
<path d="M17.5085 0.265137C10.3119 0.265137 8.20722 0.272561 7.7981 0.3065C6.32125 0.429265 5.40227 0.661803 4.40108 1.16029C3.62952 1.54343 3.02101 1.98756 2.42046 2.61014C1.32675 3.74552 0.663887 5.14233 0.423932 6.80271C0.307269 7.60877 0.273331 7.77317 0.266437 11.8904C0.263786 13.2629 0.266437 15.0691 0.266437 17.4918C0.266437 24.6827 0.274392 26.7853 0.30886 27.1937C0.428175 28.6308 0.653547 29.5349 1.1308 30.524C2.0429 32.4171 3.78489 33.8384 5.8371 34.3687C6.54769 34.5516 7.33251 34.6524 8.34006 34.7001C8.76694 34.7187 13.1179 34.7319 17.4716 34.7319C21.8253 34.7319 26.1789 34.7266 26.5952 34.7054C27.7618 34.6505 28.4393 34.5596 29.1883 34.366C31.2538 33.833 32.9639 32.4331 33.8946 30.5134C34.3626 29.5482 34.5999 28.6096 34.7072 27.2475C34.7306 26.9505 34.7404 22.2157 34.7404 17.4873C34.7404 12.758 34.7298 8.03195 34.7065 7.73498C34.5977 6.35089 34.3604 5.42021 33.8773 4.4365C33.481 3.63124 33.0408 3.02987 32.4018 2.41498C31.2614 1.32574 29.8668 0.662864 28.2049 0.423167C27.3996 0.306766 27.2392 0.272296 23.1189 0.265137H17.5085Z" fill="url(#paint0_radial_103_146)"/>
<path d="M17.5085 0.265137C10.3119 0.265137 8.20722 0.272561 7.7981 0.3065C6.32125 0.429265 5.40227 0.661803 4.40108 1.16029C3.62952 1.54343 3.02101 1.98756 2.42046 2.61014C1.32675 3.74552 0.663887 5.14233 0.423932 6.80271C0.307269 7.60877 0.273331 7.77317 0.266437 11.8904C0.263786 13.2629 0.266437 15.0691 0.266437 17.4918C0.266437 24.6827 0.274392 26.7853 0.30886 27.1937C0.428175 28.6308 0.653547 29.5349 1.1308 30.524C2.0429 32.4171 3.78489 33.8384 5.8371 34.3687C6.54769 34.5516 7.33251 34.6524 8.34006 34.7001C8.76694 34.7187 13.1179 34.7319 17.4716 34.7319C21.8253 34.7319 26.1789 34.7266 26.5952 34.7054C27.7618 34.6505 28.4393 34.5596 29.1883 34.366C31.2538 33.833 32.9639 32.4331 33.8946 30.5134C34.3626 29.5482 34.5999 28.6096 34.7072 27.2475C34.7306 26.9505 34.7404 22.2157 34.7404 17.4873C34.7404 12.758 34.7298 8.03195 34.7065 7.73498C34.5977 6.35089 34.3604 5.42021 33.8773 4.4365C33.481 3.63124 33.0408 3.02987 32.4018 2.41498C31.2614 1.32574 29.8668 0.662864 28.2049 0.423167C27.3996 0.306766 27.2392 0.272296 23.1189 0.265137H17.5085Z" fill="url(#paint1_radial_103_146)"/>
<path d="M17.5005 4.77271C14.0441 4.77271 13.6103 4.78782 12.2528 4.8496C10.8979 4.91164 9.97311 5.12615 9.16389 5.44089C8.32683 5.76596 7.61678 6.20081 6.90937 6.9085C6.20144 7.61593 5.76661 8.326 5.44048 9.16282C5.12496 9.97233 4.91019 10.8974 4.84921 12.2518C4.78849 13.6094 4.77258 14.0435 4.77258 17.5C4.77258 20.9565 4.78796 21.389 4.84947 22.7465C4.91178 24.1015 5.12628 25.0263 5.44074 25.8355C5.76608 26.6726 6.20091 27.3827 6.90858 28.0901C7.61572 28.7981 8.32577 29.234 9.1623 29.5591C9.97205 29.8738 10.8971 30.0883 12.2518 30.1504C13.6093 30.2121 14.0428 30.2273 17.4989 30.2273C20.9556 30.2273 21.3881 30.2121 22.7456 30.1504C24.1005 30.0883 25.0264 29.8738 25.8361 29.5591C26.6729 29.234 27.3819 28.7981 28.089 28.0901C28.797 27.3827 29.2318 26.6726 29.5579 25.8358C29.8708 25.0263 30.0856 24.1012 30.1492 22.7468C30.2102 21.3892 30.2261 20.9565 30.2261 17.5C30.2261 14.0435 30.2102 13.6097 30.1492 12.2521C30.0856 10.8972 29.8708 9.97233 29.5579 9.16308C29.2318 8.326 28.797 7.61593 28.089 6.9085C27.3811 6.20055 26.6732 5.7657 25.8353 5.44089C25.024 5.12615 24.0986 4.91164 22.7437 4.8496C21.3862 4.78782 20.954 4.77271 17.4966 4.77271H17.5005ZM16.3588 7.06627C16.6977 7.06574 17.0758 7.06627 17.5005 7.06627C20.8986 7.06627 21.3014 7.07846 22.6433 7.13945C23.8841 7.19619 24.5576 7.40354 25.0062 7.57774C25.6001 7.80843 26.0236 8.08418 26.4687 8.52964C26.9142 8.97509 27.1899 9.39933 27.4211 9.99327C27.5953 10.4414 27.8029 11.1149 27.8594 12.3558C27.9204 13.6974 27.9337 14.1005 27.9337 17.4971C27.9337 20.8937 27.9204 21.2967 27.8594 22.6383C27.8027 23.8793 27.5953 24.5527 27.4211 25.0009C27.1905 25.5948 26.9142 26.0177 26.4687 26.4629C26.0233 26.9084 25.6004 27.1841 25.0062 27.4148C24.5581 27.5898 23.8841 27.7966 22.6433 27.8533C21.3016 27.9143 20.8986 27.9276 17.5005 27.9276C14.1022 27.9276 13.6994 27.9143 12.3578 27.8533C11.1169 27.7961 10.4435 27.5887 9.99458 27.4145C9.40066 27.1838 8.97643 26.9081 8.53099 26.4626C8.08555 26.0172 7.8098 25.594 7.5786 24.9998C7.4044 24.5517 7.19679 23.8782 7.14031 22.6373C7.07933 21.2956 7.06713 20.8926 7.06713 17.4939C7.06713 14.0952 7.07933 13.6943 7.14031 12.3526C7.19706 11.1117 7.4044 10.4382 7.5786 9.98956C7.80927 9.39562 8.08555 8.97138 8.53099 8.52592C8.97643 8.08047 9.40066 7.80471 9.99458 7.5735C10.4432 7.3985 11.1169 7.19168 12.3578 7.13468C13.5319 7.08164 13.9868 7.06574 16.3588 7.06308V7.06627ZM24.294 9.17952C23.4509 9.17952 22.7668 9.86282 22.7668 10.7063C22.7668 11.5494 23.4509 12.2335 24.294 12.2335C25.1372 12.2335 25.8213 11.5494 25.8213 10.7063C25.8213 9.86308 25.1372 9.17899 24.294 9.17899V9.17952ZM17.5005 10.964C13.8911 10.964 10.9647 13.8905 10.9647 17.5C10.9647 21.1095 13.8911 24.0346 17.5005 24.0346C21.1099 24.0346 24.0353 21.1095 24.0353 17.5C24.0353 13.8905 21.1099 10.964 17.5005 10.964ZM17.5005 13.2576C19.8433 13.2576 21.7428 15.1568 21.7428 17.5C21.7428 19.8429 19.8433 21.7424 17.5005 21.7424C15.1575 21.7424 13.2582 19.8429 13.2582 17.5C13.2582 15.1568 15.1575 13.2576 17.5005 13.2576Z" fill="white"/>
</g>
<defs>
<radialGradient id="paint0_radial_103_146" cx="0" cy="0" r="1" gradientUnits="userSpaceOnUse" gradientTransform="translate(9.42276 37.3866) rotate(-90) scale(34.1591 31.7784)">
<stop stop-color="#FFDD55"/>
<stop offset="0.1" stop-color="#FFDD55"/>
<stop offset="0.5" stop-color="#FF543E"/>
<stop offset="1" stop-color="#C837AB"/>
</radialGradient>
<radialGradient id="paint1_radial_103_146" cx="0" cy="0" r="1" gradientUnits="userSpaceOnUse" gradientTransform="translate(-5.50951 2.74807) rotate(78.678) scale(15.2694 62.9553)">
<stop stop-color="#3771C8"/>
<stop offset="0.128" stop-color="#3771C8"/>
<stop offset="1" stop-color="#6600FF" stop-opacity="0"/>
</radialGradient>
<clipPath id="clip0_103_146">
<rect width="35" height="35" fill="white"/>
</clipPath>
</defs>
</svg>
