<svg width="22" height="22" viewBox="0 0 22 22" fill="none" xmlns="http://www.w3.org/2000/svg">
<path d="M12.2218 2.32234C14.3697 0.174455 17.8521 0.174455 20 2.32234C22.1479 4.47022 22.1479 7.95263 20 10.1005L16.4645 13.636C14.3166 15.7839 10.8342 15.7839 8.6863 13.636C8.48752 13.4373 8.30713 13.2271 8.14514 13.0075C7.90318 12.6796 7.97098 12.2301 8.25914 11.9419C8.73221 11.4688 9.56615 11.6561 10.0245 12.1435C10.0494 12.1699 10.0747 12.196 10.1005 12.2218C11.4673 13.5887 13.6834 13.5887 15.0503 12.2218L18.5858 8.6863C19.9526 7.31947 19.9526 5.10339 18.5858 3.73655C17.219 2.36972 15.0029 2.36972 13.636 3.73655L12.5754 4.79721C12.1849 5.18774 11.5517 5.18774 11.1612 4.79721C10.7706 4.40669 10.7706 3.77352 11.1612 3.383L12.2218 2.32234Z" fill="#0F0F0F"/>
<path d="M5.85787 8.6863C7.90184 6.64233 11.2261 6.60094 13.3494 8.42268C13.7319 8.75083 13.7008 9.32869 13.3444 9.68504C12.9253 10.1041 12.2317 10.0404 11.7416 9.707C10.398 8.79292 8.48593 8.88667 7.27209 10.1005L3.73655 13.636C2.36972 15.0029 2.36972 17.219 3.73655 18.5858C5.10339 19.9526 7.31947 19.9526 8.6863 18.5858L9.74696 17.5251C10.1375 17.1346 10.7706 17.1346 11.1612 17.5251C11.5517 17.9157 11.5517 18.5488 11.1612 18.9394L10.1005 20C7.95263 22.1479 4.47022 22.1479 2.32234 20C0.174455 17.8521 0.174455 14.3697 2.32234 12.2218L5.85787 8.6863Z" fill="#0F0F0F"/>
</svg>
