<svg width="23" height="22" viewBox="0 0 23 22" fill="none" xmlns="http://www.w3.org/2000/svg">
<path fill-rule="evenodd" clip-rule="evenodd" d="M9.46169 1.2385C10.1416 -0.412838 12.4804 -0.412829 13.1604 1.2385L15.4966 6.9122L20.7365 7.22043C22.5742 7.32853 23.3023 9.65225 21.8547 10.7896L17.4927 14.2169L19.2313 19.143C19.8758 20.9691 17.808 22.5538 16.2122 21.4567L11.311 18.0871L6.40984 21.4567C4.81406 22.5538 2.74629 20.9691 3.39081 19.143L5.12941 14.2169L0.767381 10.7896C-0.680169 9.65226 0.0478359 7.32853 1.88558 7.22043L7.12546 6.9122L9.46169 1.2385ZM11.311 2L8.49663 8.835L2.00302 9.21698L7.49267 13.5303L5.27679 19.8086L11.311 15.6601L17.3453 19.8086L15.1294 13.5303L20.6191 9.21698L14.1255 8.835L11.311 2Z" fill="#0F0F0F"/>
</svg>
